<?xml version="1.0" encoding="UTF-8"?>
<svg xmlns="http://www.w3.org/2000/svg" xmlns:xlink="http://www.w3.org/1999/xlink" width="200px" height="156px" viewBox="0 0 199 156" version="1.1">
<g id="surface1">
<path style=" stroke:none;fill-rule:nonzero;fill:rgb(0%,0%,0%);fill-opacity:1;" d="M 0 77.976562 L 0 155.953125 L 199.046875 155.953125 L 199.046875 0 L 0 0 Z M 130.671875 9.636719 C 138.746094 11.644531 145.113281 15.484375 149.992188 21.328125 C 153.949219 26.066406 156.515625 31.460938 157.683594 37.578125 C 158.179688 40.039062 158.113281 47.914062 157.59375 50.328125 C 154.558594 64.570312 143.605469 75.335938 129.546875 77.886719 C 127.074219 78.339844 77.144531 78.339844 74.671875 77.886719 C 57.285156 74.75 44.824219 58.882812 46.105469 41.527344 C 46.488281 36.179688 47.613281 32.003906 49.726562 27.984375 C 50.964844 25.683594 52.832031 22.796875 53.101562 22.796875 C 53.28125 22.796875 53.460938 23.359375 55.058594 28.550781 C 55.574219 30.152344 56.542969 33.3125 57.238281 35.546875 C 58.8125 40.625 60.367188 45.613281 61.738281 49.992188 C 62.300781 51.84375 62.863281 53.625 62.976562 53.941406 C 63.085938 54.257812 63.492188 55.566406 63.875 56.875 C 64.75 59.785156 66.6875 65.949219 68.6875 72.289062 C 68.933594 73.125 69.382812 74.09375 69.65625 74.433594 L 70.125 75.042969 L 93.15625 75.089844 L 116.164062 75.132812 L 113.960938 74.253906 C 112.769531 73.757812 111.398438 73.125 110.925781 72.855469 C 110.476562 72.5625 109.734375 72.15625 109.304688 71.929688 C 107.867188 71.207031 104.941406 68.882812 102.941406 66.875 C 97.835938 61.796875 94.710938 55.316406 93.765625 47.960938 C 93.449219 45.273438 93.605469 39.925781 94.101562 37.351562 C 94.820312 33.742188 96.757812 28.890625 98.667969 25.976562 C 102.378906 20.289062 107.933594 15.777344 114.097656 13.382812 C 115.042969 13.023438 115.761719 12.640625 115.671875 12.570312 C 115.492188 12.367188 93.878906 12.367188 92.910156 12.546875 C 91.921875 12.75 91.15625 13.632812 90.886719 14.851562 C 90.636719 15.910156 90.546875 16.183594 89.335938 20.539062 C 88.953125 21.847656 88.390625 23.921875 88.050781 25.164062 C 87.714844 26.40625 87.308594 27.828125 87.152344 28.324219 C 86.972656 28.820312 86.230469 31.460938 85.488281 34.191406 C 83.6875 40.691406 83.644531 40.875 83.441406 41.527344 C 83.328125 41.84375 82.5625 44.53125 81.753906 47.507812 C 79.078125 57.125 78.808594 58.027344 78.605469 58.070312 C 78.449219 58.117188 78.042969 56.851562 76.898438 52.585938 C 76.109375 49.675781 73.566406 40.601562 72.984375 38.707031 C 72.691406 37.714844 72.242188 36.089844 71.972656 35.09375 C 71.703125 34.101562 70.800781 30.851562 69.945312 27.875 C 69.113281 24.894531 67.96875 20.71875 67.382812 18.621094 C 66.503906 15.460938 65.964844 13.902344 65.292969 12.640625 C 65.15625 12.414062 68.460938 11.058594 70.734375 10.40625 C 72.242188 9.976562 74.894531 9.390625 76.355469 9.1875 C 76.738281 9.140625 88.683594 9.09375 102.894531 9.117188 C 128.402344 9.164062 128.785156 9.164062 130.671875 9.636719 Z M 164.410156 94.792969 C 169.738281 95.378906 174.011719 97.386719 177.566406 101 C 180.960938 104.40625 182.785156 108.128906 184 114.089844 C 184.425781 116.097656 184.359375 122.6875 183.910156 125.035156 C 182.445312 132.59375 178.375 138.417969 172.167969 141.847656 C 170.570312 142.730469 166.859375 143.902344 164.65625 144.21875 C 162.046875 144.601562 156.492188 144.398438 154.289062 143.8125 C 149.8125 142.640625 146.886719 140.945312 143.851562 137.808594 C 142.636719 136.546875 140.792969 134.242188 140.792969 133.972656 C 140.792969 133.90625 140.5 133.363281 140.164062 132.777344 C 136.902344 127.179688 136.316406 117.699219 138.769531 110.34375 C 139.375 108.582031 140.839844 105.488281 141.511719 104.609375 C 144.03125 101.292969 145.023438 100.296875 147.429688 98.652344 C 149.519531 97.207031 150.847656 96.550781 153.164062 95.808594 C 156.628906 94.722656 160.5625 94.363281 164.410156 94.792969 Z M 100.265625 95.402344 C 100.625 95.738281 102.175781 97.726562 104 100.1875 C 104.246094 100.5 104.695312 101.089844 105.011719 101.449219 C 105.347656 101.832031 105.796875 102.441406 106.042969 102.78125 C 106.496094 103.414062 107.011719 104.089844 109.554688 107.316406 C 110.25 108.175781 111.511719 109.800781 112.34375 110.929688 C 113.195312 112.035156 114.5 113.726562 115.242188 114.675781 C 116.007812 115.625 117.109375 117.089844 117.695312 117.902344 C 118.300781 118.714844 118.863281 119.390625 119 119.390625 C 119.113281 119.390625 119.203125 114.699219 119.203125 107.316406 C 119.203125 99.417969 119.269531 95.242188 119.425781 95.242188 C 119.5625 95.242188 121.632812 95.242188 124.039062 95.242188 C 126.445312 95.242188 128.785156 95.242188 129.210938 95.242188 L 129.996094 95.242188 L 129.953125 119.4375 L 129.886719 143.65625 L 122.53125 143.722656 L 115.199219 143.765625 L 113.308594 141.375 C 112.296875 140.042969 110.835938 138.171875 110.09375 137.222656 C 109.351562 136.273438 108.496094 135.144531 108.179688 134.738281 C 107.867188 134.332031 107.214844 133.476562 106.71875 132.84375 C 105.820312 131.714844 104.359375 129.796875 100.894531 125.238281 C 99.90625 123.953125 99.050781 122.84375 98.960938 122.777344 C 98.894531 122.710938 98.285156 121.921875 97.632812 121.015625 C 96.957031 120.113281 96.375 119.4375 96.328125 119.484375 C 96.261719 119.527344 96.238281 124.875 96.238281 131.332031 C 96.238281 137.808594 96.195312 143.25 96.125 143.429688 C 95.925781 143.949219 85.578125 143.925781 85.375 143.429688 C 85.171875 142.886719 85.21875 95.851562 85.421875 95.535156 C 85.554688 95.3125 87.332031 95.242188 92.550781 95.175781 C 96.394531 95.152344 99.589844 95.109375 99.65625 95.0625 C 99.746094 95.039062 100.015625 95.199219 100.265625 95.402344 Z M 30.585938 106.640625 C 30.585938 112.78125 30.675781 117.8125 30.769531 117.8125 C 30.878906 117.8125 31.195312 117.292969 31.488281 116.683594 C 31.78125 116.050781 32.09375 115.554688 32.207031 115.554688 C 32.296875 115.554688 32.386719 115.464844 32.386719 115.328125 C 32.386719 115.148438 39.875 103.730469 44.082031 97.5 L 45.363281 95.582031 L 51.707031 95.515625 C 55.867188 95.492188 58.027344 95.535156 58.027344 95.695312 C 58.027344 95.808594 57.554688 96.550781 56.992188 97.320312 C 56.429688 98.109375 55.824219 98.945312 55.644531 99.191406 C 55.101562 99.984375 52.808594 103.121094 49.816406 107.203125 C 48.21875 109.371094 46.375 111.921875 45.679688 112.847656 C 45.003906 113.773438 43.855469 115.328125 43.136719 116.277344 C 42.417969 117.25 41.832031 118.195312 41.832031 118.375 C 41.832031 118.578125 42.574219 119.777344 43.496094 121.039062 C 47.433594 126.546875 49.703125 129.683594 49.886719 129.886719 C 49.976562 130 50.3125 130.472656 50.605469 130.902344 C 50.898438 131.332031 51.234375 131.78125 51.347656 131.917969 C 51.640625 132.300781 53.820312 135.328125 54.765625 136.679688 C 56.160156 138.6875 57.554688 140.609375 58.632812 142.007812 C 59.171875 142.730469 59.554688 143.40625 59.488281 143.542969 C 59.265625 143.902344 46.511719 143.835938 46.0625 143.472656 C 45.859375 143.339844 45.320312 142.59375 44.847656 141.847656 C 44.398438 141.105469 43.925781 140.449219 43.8125 140.425781 C 43.722656 140.382812 43.632812 140.246094 43.632812 140.15625 C 43.632812 140.042969 43.160156 139.277344 42.574219 138.417969 C 38.300781 132.121094 31.53125 121.851562 31.285156 121.242188 C 31.128906 120.859375 30.902344 120.519531 30.789062 120.519531 C 30.675781 120.519531 30.585938 125.578125 30.585938 132.03125 L 30.585938 143.542969 L 30.09375 143.65625 C 29.800781 143.722656 27.394531 143.746094 24.738281 143.722656 L 19.90625 143.65625 L 19.835938 119.550781 L 19.792969 95.46875 L 30.585938 95.46875 Z M 75.300781 118.894531 C 75.320312 131.738281 75.253906 142.546875 75.164062 142.933594 L 74.984375 143.65625 L 64.4375 143.65625 L 64.367188 119.550781 L 64.324219 95.46875 L 69.765625 95.515625 L 75.230469 95.582031 Z M 75.300781 118.894531 "/>
<path style=" stroke:none;fill-rule:nonzero;fill:rgb(0%,0%,0%);fill-opacity:1;" d="M 123.925781 23.832031 C 116.007812 24.78125 110.003906 29.589844 107.550781 36.902344 C 106.96875 38.683594 106.898438 38.953125 106.605469 41.707031 C 106.203125 45.546875 106.988281 50.238281 108.632812 53.488281 C 110.769531 57.734375 114.90625 61.296875 119.449219 62.832031 C 124.691406 64.59375 131.707031 63.960938 135.914062 61.367188 C 136.496094 61.003906 137.039062 60.710938 137.128906 60.710938 C 137.351562 60.710938 139.265625 59.085938 140.296875 58.003906 C 144.210938 53.941406 146.101562 48.027344 145.515625 41.777344 C 145.132812 37.804688 144.210938 35.003906 142.277344 32.070312 C 140.972656 30.109375 138.25 27.558594 136.296875 26.453125 C 134.652344 25.527344 131.796875 24.441406 130.109375 24.125 C 128.804688 23.878906 125.070312 23.699219 123.925781 23.832031 Z M 127.972656 29.070312 C 127.972656 29.160156 127.050781 30.875 125.90625 32.859375 C 124.78125 34.824219 123.699219 36.699219 123.542969 37.015625 C 123.363281 37.328125 122.9375 38.074219 122.554688 38.707031 C 122.195312 39.316406 121.585938 40.421875 121.179688 41.121094 C 120.777344 41.84375 120.347656 42.429688 120.214844 42.429688 C 120.078125 42.429688 119.089844 40.875 118.011719 38.976562 C 116.929688 37.105469 115.804688 35.117188 115.492188 34.621094 L 114.929688 33.671875 L 115.941406 32.75 C 117.851562 30.988281 120.257812 29.746094 122.914062 29.136719 C 124.058594 28.890625 127.972656 28.820312 127.972656 29.070312 Z M 132.179688 30.152344 C 133.84375 30.875 136.023438 32.453125 137.238281 33.832031 C 138.34375 35.050781 139.894531 37.53125 139.894531 38.050781 C 139.894531 38.324219 138.722656 38.367188 132.292969 38.367188 C 128.109375 38.367188 124.601562 38.300781 124.53125 38.210938 C 124.441406 38.140625 124.511719 37.847656 124.667969 37.601562 C 124.847656 37.328125 125.320312 36.515625 125.722656 35.773438 C 126.128906 35.027344 126.691406 34.058594 126.960938 33.628906 C 127.230469 33.199219 127.75 32.273438 128.132812 31.597656 C 129.390625 29.273438 129.34375 29.296875 130.199219 29.453125 C 130.605469 29.542969 131.503906 29.835938 132.179688 30.152344 Z M 115.445312 37.058594 C 116.863281 39.496094 118.796875 42.859375 119.875 44.800781 C 120.28125 45.546875 120.910156 46.605469 121.25 47.171875 C 121.585938 47.710938 121.8125 48.253906 121.765625 48.34375 C 121.632812 48.570312 111.984375 48.570312 111.644531 48.34375 C 110.925781 47.871094 110.679688 43.46875 111.21875 40.875 C 111.691406 38.570312 113.398438 34.984375 114.007812 34.984375 C 114.117188 34.984375 114.75 35.929688 115.445312 37.058594 Z M 139.757812 39.65625 C 140.457031 39.765625 140.589844 39.902344 140.792969 40.601562 C 141.535156 43.199219 141.265625 46.539062 140.097656 49.652344 C 139.398438 51.480469 138.140625 53.421875 137.847656 53.105469 C 137.691406 52.925781 135.464844 49.132812 134 46.539062 C 133.640625 45.859375 132.628906 44.125 131.773438 42.632812 C 130.917969 41.167969 130.222656 39.902344 130.222656 39.859375 C 130.222656 39.585938 138.273438 39.40625 139.757812 39.65625 Z M 132.988281 47.28125 C 133.484375 48.164062 134.25 49.472656 134.675781 50.21875 C 135.125 50.960938 135.824219 52.203125 136.25 52.992188 L 137.015625 54.4375 L 136.386719 55.113281 C 135.214844 56.332031 132.585938 57.9375 130.828125 58.5 C 127.90625 59.402344 124.148438 59.628906 124.148438 58.90625 C 124.148438 58.792969 125.070312 57.101562 126.21875 55.136719 C 127.34375 53.171875 128.535156 51.121094 128.851562 50.53125 C 131.101562 46.605469 131.707031 45.613281 131.886719 45.65625 C 132 45.703125 132.496094 46.425781 132.988281 47.28125 Z M 127.613281 49.832031 C 127.660156 49.921875 127.097656 51.074219 126.355469 52.359375 C 124.644531 55.339844 124.398438 55.792969 123.496094 57.371094 C 123.09375 58.09375 122.6875 58.726562 122.597656 58.769531 C 122.507812 58.839844 121.765625 58.636719 120.957031 58.363281 C 117.449219 57.125 114.230469 54.324219 112.613281 51.074219 C 112.183594 50.238281 112.09375 49.878906 112.296875 49.8125 C 112.746094 49.609375 127.480469 49.628906 127.613281 49.832031 Z M 127.613281 49.832031 "/>
<path style=" stroke:none;fill-rule:nonzero;fill:rgb(0%,0%,0%);fill-opacity:1;" d="M 157.773438 104.453125 C 153.5 105.738281 150.621094 108.988281 149.363281 113.976562 C 148.125 118.894531 148.664062 124.875 150.6875 128.847656 C 151.320312 130.113281 151.429688 130.25 153.097656 131.964844 C 154.492188 133.386719 155.90625 134.21875 157.863281 134.738281 C 159.167969 135.078125 162.273438 135.101562 163.757812 134.738281 C 170.144531 133.226562 173.585938 126.523438 172.753906 117.25 C 172.460938 114.089844 172.054688 112.507812 170.929688 110.25 C 169.582031 107.519531 167.648438 105.691406 165.082031 104.699219 C 163.328125 104.023438 159.617188 103.886719 157.773438 104.453125 Z M 157.773438 104.453125 "/>
<path style=" stroke:none;fill-rule:nonzero;fill:rgb(0%,0%,0%);fill-opacity:1;" d="M 97.296875 96.800781 L 96.644531 97.476562 L 97.183594 98.15625 C 97.835938 98.96875 98.105469 99.011719 98.847656 98.359375 C 99.523438 97.769531 99.546875 97.636719 98.9375 96.800781 C 98.351562 95.988281 98.082031 95.988281 97.296875 96.800781 Z M 97.296875 96.800781 "/>
<path style=" stroke:none;fill-rule:nonzero;fill:rgb(0%,0%,0%);fill-opacity:1;" d="M 100.128906 99.984375 C 99.273438 100.703125 99.253906 100.816406 99.972656 101.628906 C 100.578125 102.308594 100.9375 102.261719 101.75 101.359375 C 102.152344 100.90625 102.152344 100.886719 101.5 100.140625 L 100.847656 99.375 Z M 100.128906 99.984375 "/>
<path style=" stroke:none;fill-rule:nonzero;fill:rgb(0%,0%,0%);fill-opacity:1;" d="M 102.445312 103.457031 L 101.792969 104 L 102.402344 104.8125 C 103.074219 105.691406 103.367188 105.691406 104.222656 104.746094 C 104.652344 104.269531 104.652344 104.25 104.199219 103.640625 C 103.617188 102.847656 103.257812 102.804688 102.445312 103.457031 Z M 102.445312 103.457031 "/>
<path style=" stroke:none;fill-rule:nonzero;fill:rgb(0%,0%,0%);fill-opacity:1;" d="M 105.144531 106.664062 L 104.46875 107.203125 L 104.898438 107.996094 C 105.394531 108.921875 105.796875 108.964844 106.695312 108.21875 C 107.347656 107.703125 107.347656 107.679688 106.988281 107.113281 C 106.359375 106.167969 105.910156 106.054688 105.144531 106.664062 Z M 105.144531 106.664062 "/>
<path style=" stroke:none;fill-rule:nonzero;fill:rgb(0%,0%,0%);fill-opacity:1;" d="M 107.800781 109.957031 C 106.921875 110.566406 106.898438 110.726562 107.621094 111.605469 C 108.160156 112.261719 108.179688 112.28125 108.789062 111.898438 C 109.800781 111.289062 109.890625 110.972656 109.304688 110.183594 C 109.015625 109.777344 108.722656 109.460938 108.632812 109.460938 C 108.5625 109.460938 108.179688 109.6875 107.800781 109.957031 Z M 107.800781 109.957031 "/>
<path style=" stroke:none;fill-rule:nonzero;fill:rgb(0%,0%,0%);fill-opacity:1;" d="M 110.386719 113.320312 C 109.621094 113.886719 109.597656 114.132812 110.296875 114.992188 L 110.835938 115.644531 L 111.644531 115.035156 C 112.5 114.382812 112.5 114.246094 111.710938 113.230469 C 111.308594 112.734375 111.128906 112.757812 110.386719 113.320312 Z M 110.386719 113.320312 "/>
<path style=" stroke:none;fill-rule:nonzero;fill:rgb(0%,0%,0%);fill-opacity:1;" d="M 96.375 113.523438 C 96.195312 113.839844 96.125 115.9375 96.304688 116.121094 C 96.507812 116.324219 97.566406 115.53125 97.722656 115.058594 C 97.8125 114.832031 97.65625 114.382812 97.363281 113.976562 C 96.824219 113.253906 96.597656 113.164062 96.375 113.523438 Z M 96.375 113.523438 "/>
<path style=" stroke:none;fill-rule:nonzero;fill:rgb(0%,0%,0%);fill-opacity:1;" d="M 112.792969 116.773438 L 112.140625 117.316406 L 112.769531 118.128906 L 113.398438 118.964844 L 114.097656 118.421875 C 114.996094 117.722656 115.042969 117.5625 114.480469 116.84375 C 113.894531 116.097656 113.648438 116.097656 112.792969 116.773438 Z M 112.792969 116.773438 "/>
<path style=" stroke:none;fill-rule:nonzero;fill:rgb(0%,0%,0%);fill-opacity:1;" d="M 98.398438 117.25 C 97.746094 117.789062 97.722656 117.8125 98.105469 118.421875 C 98.757812 119.503906 99.09375 119.574219 99.859375 118.828125 L 100.535156 118.152344 L 99.949219 117.40625 C 99.636719 117.023438 99.320312 116.683594 99.230469 116.683594 C 99.140625 116.707031 98.78125 116.953125 98.398438 117.25 Z M 98.398438 117.25 "/>
<path style=" stroke:none;fill-rule:nonzero;fill:rgb(0%,0%,0%);fill-opacity:1;" d="M 115.535156 119.980469 C 114.660156 120.566406 114.660156 120.703125 115.445312 121.582031 C 116.03125 122.234375 116.300781 122.234375 116.90625 121.582031 C 117.515625 120.925781 117.515625 120.792969 116.886719 120.023438 L 116.367188 119.390625 Z M 115.535156 119.980469 "/>
<path style=" stroke:none;fill-rule:nonzero;fill:rgb(0%,0%,0%);fill-opacity:1;" d="M 101.074219 120.566406 C 100.714844 120.835938 100.378906 121.085938 100.332031 121.128906 C 100.195312 121.21875 101.300781 122.777344 101.5 122.777344 C 101.839844 122.777344 103.007812 121.851562 103.007812 121.605469 C 103.007812 121.3125 102.132812 120.070312 101.90625 120.070312 C 101.792969 120.070312 101.433594 120.296875 101.074219 120.566406 Z M 101.074219 120.566406 "/>
<path style=" stroke:none;fill-rule:nonzero;fill:rgb(0%,0%,0%);fill-opacity:1;" d="M 117.964844 123.34375 C 117.3125 123.882812 117.289062 123.90625 117.671875 124.515625 C 118.191406 125.394531 118.707031 125.6875 118.976562 125.28125 C 119.222656 124.855469 119.15625 122.9375 118.863281 122.867188 C 118.753906 122.824219 118.347656 123.046875 117.964844 123.34375 Z M 117.964844 123.34375 "/>
<path style=" stroke:none;fill-rule:nonzero;fill:rgb(0%,0%,0%);fill-opacity:1;" d="M 103.390625 124.042969 C 102.761719 124.605469 102.761719 124.652344 103.167969 125.101562 C 104.132812 126.253906 104.089844 126.230469 104.808594 125.710938 C 105.574219 125.171875 105.640625 124.695312 105.054688 123.953125 C 104.492188 123.296875 104.15625 123.320312 103.390625 124.042969 Z M 103.390625 124.042969 "/>
<path style=" stroke:none;fill-rule:nonzero;fill:rgb(0%,0%,0%);fill-opacity:1;" d="M 106 127.382812 L 105.394531 127.921875 L 106 128.734375 L 106.628906 129.546875 L 107.417969 128.960938 C 107.84375 128.625 108.179688 128.308594 108.179688 128.261719 C 108.179688 127.945312 107.214844 126.839844 106.945312 126.839844 C 106.765625 126.839844 106.359375 127.089844 106 127.382812 Z M 106 127.382812 "/>
<path style=" stroke:none;fill-rule:nonzero;fill:rgb(0%,0%,0%);fill-opacity:1;" d="M 108.652344 130.65625 L 107.890625 131.285156 L 108.5625 132.03125 L 109.261719 132.796875 L 110.070312 132.1875 L 110.878906 131.558594 L 110.296875 130.765625 C 109.957031 130.339844 109.644531 130 109.554688 130 C 109.484375 130 109.082031 130.292969 108.652344 130.65625 Z M 108.652344 130.65625 "/>
<path style=" stroke:none;fill-rule:nonzero;fill:rgb(0%,0%,0%);fill-opacity:1;" d="M 111.285156 133.859375 C 110.519531 134.421875 110.519531 134.648438 111.195312 135.507812 C 111.78125 136.207031 112.164062 136.140625 112.972656 135.234375 C 113.375 134.785156 113.375 134.761719 112.882812 134.085938 C 112.273438 133.273438 112.09375 133.25 111.285156 133.859375 Z M 111.285156 133.859375 "/>
<path style=" stroke:none;fill-rule:nonzero;fill:rgb(0%,0%,0%);fill-opacity:1;" d="M 113.738281 137.359375 L 113.128906 137.921875 L 113.578125 138.578125 C 114.253906 139.523438 114.410156 139.570312 115.152344 138.984375 C 115.917969 138.375 115.964844 137.96875 115.402344 137.265625 C 114.839844 136.613281 114.5 136.636719 113.738281 137.359375 Z M 113.738281 137.359375 "/>
<path style=" stroke:none;fill-rule:nonzero;fill:rgb(0%,0%,0%);fill-opacity:1;" d="M 116.503906 140.539062 L 115.761719 141.21875 L 116.253906 141.9375 C 116.527344 142.324219 116.886719 142.640625 117.042969 142.640625 C 117.378906 142.640625 118.527344 141.78125 118.527344 141.554688 C 118.527344 141.464844 118.234375 141.058594 117.875 140.628906 L 117.246094 139.863281 Z M 116.503906 140.539062 "/>
</g>
</svg>
